<svg width="100%" height="100%" viewBox="0 0 100 100" version="1.1" xmlns="http://www.w3.org/2000/svg" xmlns:xlink="http://www.w3.org/1999/xlink" xml:space="preserve" style="fill-rule:evenodd;clip-rule:evenodd;stroke-linejoin:round;stroke-miterlimit:2;">
    <g transform="matrix(1.06891,0,0,1.06891,-2.67566,-5.09416)">
        <g transform="matrix(0.882659,0,0,0.87198,14.488,6.57306)">
            <g transform="matrix(6.06433,0,0,6.06433,-7.65884,-293.119)">
                <path d="M6.598,63.313C6.07,63.373 5.614,63.397 5.218,63.397C4.882,63.397 4.63,63.385 4.462,63.361C4.438,62.833 4.426,62.017 4.426,60.913C4.426,59.605 4.462,58.345 4.534,57.145L2.986,57.145C3.058,58.237 3.094,59.497 3.094,60.913C3.094,62.197 3.058,63.457 2.986,64.681C3.598,64.645 4.198,64.633 4.786,64.633C5.098,64.633 5.698,64.645 6.598,64.681L6.598,63.313Z" style="fill:rgb(236,71,219);stroke:rgb(0,1,17);stroke-width:0.16px;"/>
            </g>
            <g transform="matrix(6.06433,0,0,6.06433,-7.65884,-293.119)">
                <path d="M7.15,57.145C7.222,58.801 7.258,60.061 7.258,60.913C7.258,62.329 7.222,63.589 7.15,64.681L8.698,64.681C8.626,63.697 8.59,62.437 8.59,60.913C8.59,59.377 8.626,58.117 8.698,57.145L7.15,57.145Z" style="fill:rgb(236,71,219);stroke:rgb(0,1,17);stroke-width:0.16px;"/>
            </g>
            <g transform="matrix(6.06433,0,0,6.06433,-7.65884,-293.119)">
                <path d="M13.966,57.145C13.186,57.181 12.406,57.193 11.626,57.193C10.714,57.193 9.934,57.181 9.274,57.145L9.274,58.501C10.234,58.477 10.786,58.465 10.918,58.465C10.954,59.053 10.966,59.869 10.966,60.913C10.966,62.185 10.93,63.445 10.858,64.681L12.418,64.681C12.334,63.085 12.298,61.825 12.298,60.913C12.298,59.761 12.31,58.945 12.334,58.465C12.586,58.465 13.126,58.477 13.966,58.501L13.966,57.145Z" style="fill:rgb(236,71,219);stroke:rgb(0,1,17);stroke-width:0.16px;"/>
            </g>
        </g>
        <g transform="matrix(4.70981,0,0,4.65283,15.6797,9.06902)">
            <path d="M4.776,0.216C3.996,0.252 3.216,0.264 2.436,0.264C1.524,0.264 0.744,0.252 0.084,0.216L0.084,1.572C1.044,1.548 1.596,1.536 1.728,1.536C1.764,2.124 1.776,2.94 1.776,3.984C1.776,5.256 1.74,6.516 1.668,7.752L3.228,7.752C3.144,6.156 3.108,4.896 3.108,3.984C3.108,2.832 3.12,2.016 3.144,1.536C3.396,1.536 3.936,1.548 4.776,1.572L4.776,0.216Z" style="fill:rgb(236,71,219);stroke:rgb(0,1,17);stroke-width:0.18px;"/>
            <path d="M8.964,0.252C8.448,0.288 7.848,0.3 7.152,0.3C6.444,0.3 5.844,0.276 5.352,0.216C5.424,1.26 5.46,2.508 5.46,3.984C5.46,5.58 5.424,6.828 5.352,7.752C5.772,7.692 6.372,7.668 7.152,7.668C7.764,7.668 8.364,7.692 8.964,7.752L8.964,6.36C8.616,6.42 8.16,6.444 7.62,6.444C7.236,6.444 6.972,6.432 6.828,6.408C6.804,5.976 6.792,5.232 6.792,4.164C7.596,4.164 8.148,4.176 8.448,4.212L8.448,2.844C8.052,2.88 7.5,2.892 6.792,2.892C6.78,2.376 6.792,1.932 6.828,1.56C7.068,1.548 7.284,1.536 7.488,1.536C8.136,1.536 8.628,1.56 8.964,1.608L8.964,0.252Z" style="fill:rgb(236,71,219);stroke:rgb(0,1,17);stroke-width:0.18px;"/>
            <path d="M9.708,0.216C9.78,1.32 9.816,2.58 9.816,3.984C9.816,4.98 9.78,6.24 9.708,7.752C9.876,7.752 10.164,7.776 10.56,7.824C10.956,7.872 11.328,7.896 11.652,7.896C13.248,7.896 14.184,6.348 14.184,3.72C14.184,2.46 13.992,1.572 13.596,1.032C13.2,0.492 12.564,0.216 11.688,0.216L9.708,0.216ZM11.712,1.5C12.624,1.5 12.948,2.04 12.948,3.72C12.948,5.652 12.528,6.612 11.676,6.612C11.568,6.612 11.412,6.6 11.184,6.564C11.16,5.976 11.148,5.124 11.148,3.984C11.148,2.916 11.16,2.088 11.184,1.5L11.712,1.5Z" style="fill:rgb(236,71,219);stroke:rgb(0,1,17);stroke-width:0.18px;"/>
        </g>
    </g>
</svg>
